<svg xmlns="http://www.w3.org/2000/svg" xmlns:xlink="http://www.w3.org/1999/xlink" width="1024" zoomAndPan="magnify" viewBox="0 0 768 767.999994" height="1024" preserveAspectRatio="xMidYMid meet" version="1.0"><defs><clipPath id="4334be18b7"><path d="M 144 76.800781 L 624 76.800781 L 624 691 L 144 691 Z M 144 76.800781 " clip-rule="nonzero"/></clipPath></defs><rect x="-76.8" width="921.6" fill="#ffffff" y="-76.799999" height="921.599993" fill-opacity="1"/><rect x="-76.8" width="921.6" fill="#ffffff" y="-76.799999" height="921.599993" fill-opacity="1"/><rect x="-76.8" width="921.6" fill="#ffffff" y="-76.799999" height="921.599993" fill-opacity="1"/><g clip-path="url(#4334be18b7)"><path fill="#f4f5f7" d="M 605.65625 514.484375 C 615.507812 514.484375 623.675781 506.320312 623.675781 496.46875 L 623.675781 94.816406 C 623.675781 84.96875 615.507812 76.800781 605.65625 76.800781 L 257.972656 76.800781 C 196.222656 76.800781 146.246094 127.007812 146.246094 188.503906 L 146.246094 546.4375 C 145.042969 552.441406 144.324219 558.445312 144.324219 564.691406 C 144.324219 612.257812 183.007812 650.933594 230.582031 650.933594 L 246.441406 650.933594 L 246.441406 676.636719 C 246.441406 682.160156 249.804688 686.964844 254.609375 688.886719 C 259.65625 691.050781 265.421875 689.847656 269.265625 686.003906 L 304.347656 650.933594 L 309.632812 650.933594 L 345.675781 686.964844 C 348.320312 689.609375 351.683594 690.808594 355.046875 690.808594 C 356.726562 690.808594 358.410156 690.570312 360.09375 689.847656 C 365.136719 687.6875 368.261719 682.882812 368.261719 677.597656 L 368.261719 651.171875 L 605.65625 651.171875 C 615.507812 651.171875 623.675781 643.003906 623.675781 633.15625 C 623.675781 623.308594 615.507812 615.140625 605.65625 615.140625 L 557.121094 615.140625 L 557.121094 514.726562 L 605.65625 514.726562 Z M 521.078125 614.898438 L 368.261719 614.898438 L 368.261719 569.738281 C 368.261719 562.289062 362.253906 556.285156 354.804688 556.285156 L 259.414062 556.285156 C 251.96875 556.285156 245.960938 562.289062 245.960938 569.738281 L 245.960938 614.898438 L 230.101562 614.898438 C 202.46875 614.898438 179.882812 592.320312 179.882812 564.691406 C 179.882812 559.886719 180.605469 555.324219 181.804688 551 C 182.046875 550.519531 182.046875 549.800781 182.285156 549.320312 C 182.765625 548.117188 183.246094 546.917969 183.726562 545.476562 C 183.726562 545.234375 183.726562 545.234375 183.96875 544.996094 C 189.015625 532.984375 198.625 523.375 210.640625 518.328125 C 210.640625 518.328125 210.640625 518.328125 210.878906 518.328125 C 212.320312 517.847656 213.523438 517.367188 214.964844 516.886719 C 215.203125 516.886719 215.683594 516.648438 215.925781 516.648438 C 217.128906 516.40625 218.089844 515.925781 219.289062 515.6875 C 219.769531 515.6875 220.25 515.445312 220.730469 515.445312 C 221.933594 515.207031 222.894531 514.964844 224.09375 514.964844 C 224.574219 514.964844 225.054688 514.726562 225.535156 514.726562 C 227.21875 514.484375 228.660156 514.484375 230.34375 514.484375 L 521.078125 514.484375 Z M 521.078125 614.898438 " fill-opacity="1" fill-rule="nonzero"/></g></svg>